<svg width="14" height="14" viewBox="0 0 14 14" fill="none" xmlns="http://www.w3.org/2000/svg">
<path d="M3.20829 4.08332C2.97623 4.08332 2.75367 3.99114 2.58957 3.82704C2.42548 3.66295 2.33329 3.44039 2.33329 3.20832C2.33329 2.97626 2.42548 2.7537 2.58957 2.5896C2.75367 2.42551 2.97623 2.33332 3.20829 2.33332C3.44036 2.33332 3.66292 2.42551 3.82701 2.5896C3.99111 2.7537 4.08329 2.97626 4.08329 3.20832C4.08329 3.44039 3.99111 3.66295 3.82701 3.82704C3.66292 3.99114 3.44036 4.08332 3.20829 4.08332ZM12.4891 6.75499L7.23913 1.50499C7.02913 1.29499 6.73746 1.16666 6.41663 1.16666H2.33329C1.68579 1.16666 1.16663 1.68582 1.16663 2.33332V6.41666C1.16663 6.73749 1.29496 7.02916 1.51079 7.23916L6.75496 12.4892C6.97079 12.6992 7.26246 12.8333 7.58329 12.8333C7.90413 12.8333 8.19579 12.6992 8.40579 12.4892L12.4891 8.40582C12.705 8.19582 12.8333 7.90416 12.8333 7.58332C12.8333 7.25666 12.6991 6.96499 12.4891 6.75499Z" fill="#006EE0"/>
</svg>
