<svg width="15" height="14" viewBox="0 0 15 14" fill="none" xmlns="http://www.w3.org/2000/svg">
<path d="M7.50001 0.333344C6.62453 0.333344 5.75762 0.505782 4.94879 0.840813C4.13995 1.17584 3.40502 1.66691 2.78596 2.28596C1.53572 3.53621 0.833344 5.2319 0.833344 7.00001C0.833344 8.76812 1.53572 10.4638 2.78596 11.7141C3.40502 12.3331 4.13995 12.8242 4.94879 13.1592C5.75762 13.4942 6.62453 13.6667 7.50001 13.6667C9.26812 13.6667 10.9638 12.9643 12.2141 11.7141C13.4643 10.4638 14.1667 8.76812 14.1667 7.00001C14.1667 6.12453 13.9942 5.25762 13.6592 4.44879C13.3242 3.63995 12.8331 2.90502 12.2141 2.28596C11.595 1.66691 10.8601 1.17584 10.0512 0.840813C9.2424 0.505782 8.37549 0.333344 7.50001 0.333344ZM10.3 9.80001L6.83334 7.66668V3.66668H7.83334V7.13334L10.8333 8.93334L10.3 9.80001Z" fill="#EAAA08"/>
</svg>
