<svg width="12" height="12" viewBox="0 0 12 12" fill="none" xmlns="http://www.w3.org/2000/svg">
<path d="M5.99382 0.166656C9.21955 0.166656 11.8335 2.77981 11.8337 5.99966C11.8337 9.21966 9.21965 11.8336 5.99382 11.8336C2.77398 11.8335 0.166672 9.21955 0.166672 5.99966C0.166847 2.77993 2.77409 0.166847 5.99382 0.166656ZM5.99968 1.33365C3.4216 1.33382 1.33384 3.42159 1.33366 5.99966C1.33366 8.57789 3.4215 10.6665 5.99968 10.6667C8.57801 10.6667 10.6667 8.578 10.6667 5.99966C10.6665 3.42148 8.5779 1.33365 5.99968 1.33365ZM6.29167 3.08365V6.14615L8.91667 7.70377L8.47917 8.42056L5.41667 6.58365V3.08365H6.29167Z" fill="#006EE0"/>
</svg>
