<svg width="12" height="12" viewBox="0 0 12 12" fill="none" xmlns="http://www.w3.org/2000/svg">
<path d="M8.91667 11.25L7.3125 9.5L7.98917 8.82333L8.91667 9.75083L11.0108 7.65667L11.6875 8.47917M6.46667 11.25H1.91667C1.26917 11.25 0.75 10.7308 0.75 10.0833V1.91667C0.75 1.26917 1.26917 0.75 1.91667 0.75H10.0833C10.7308 0.75 11.25 1.26917 11.25 1.91667V6.46667C10.8942 6.2625 10.5033 6.11667 10.0833 6.04667V1.91667H1.91667V10.0833H6.04667C6.11667 10.5033 6.2625 10.8942 6.46667 11.25ZM6 8.91667H3.08333V7.75H6M7.56333 6.58333H3.08333V5.41667H8.91667V6.04667C8.42083 6.12833 7.96583 6.315 7.56333 6.58333ZM8.91667 4.25H3.08333V3.08333H8.91667" fill="#006EE0"/>
</svg>
