<svg width="16" height="16" viewBox="0 0 16 16" fill="none" xmlns="http://www.w3.org/2000/svg">
<g clip-path="url(#clip0_2_414)">
<path d="M7.08675 9.40002C7.59963 8.27385 8.5388 7.39749 9.69773 6.96368C10.8567 6.52986 12.1404 6.57411 13.2667 7.08669C14.3929 7.59957 15.2693 8.53874 15.7031 9.69767C16.1369 10.8566 16.0927 12.1404 15.5801 13.2667C15.2104 14.0827 14.6131 14.7747 13.8598 15.2596C13.1065 15.7444 12.2293 16.0015 11.3334 16C9.53341 16 7.88675 14.96 7.11341 13.3334H0.666748V12C0.706748 11.24 1.22675 10.62 2.22675 10.12C3.22675 9.62002 4.48008 9.36002 6.00008 9.33335C6.38008 9.33335 6.74008 9.36669 7.08675 9.40002ZM6.00008 2.66669C6.74675 2.68669 7.37341 2.94669 7.87341 3.44669C8.37341 3.94669 8.62008 4.57335 8.62008 5.33335C8.62008 6.09335 8.37341 6.72002 7.87341 7.22002C7.37341 7.72002 6.74675 7.96669 6.00008 7.96669C5.25341 7.96669 4.62675 7.72002 4.12675 7.22002C3.62675 6.72002 3.38008 6.09335 3.38008 5.33335C3.38008 4.57335 3.62675 3.94669 4.12675 3.44669C4.62675 2.94669 5.25341 2.68669 6.00008 2.66669ZM11.3334 14.6667C12.2175 14.6667 13.0653 14.3155 13.6904 13.6904C14.3156 13.0653 14.6667 12.2174 14.6667 11.3334C14.6667 10.4493 14.3156 9.60145 13.6904 8.97633C13.0653 8.35121 12.2175 8.00002 11.3334 8.00002C10.4494 8.00002 9.60151 8.35121 8.97639 8.97633C8.35127 9.60145 8.00008 10.4493 8.00008 11.3334C8.00008 12.2174 8.35127 13.0653 8.97639 13.6904C9.60151 14.3155 10.4494 14.6667 11.3334 14.6667ZM10.6667 9.33335H11.6667V11.2134L13.2934 12.1534L12.7934 13.02L10.6667 11.7934V9.33335Z" fill="#FB7185"/>
</g>
<defs>
<clipPath id="clip0_2_414">
<rect width="16" height="16" fill="white"/>
</clipPath>
</defs>
</svg>
